<?xml version="1.0" standalone="no"?>
<!DOCTYPE svg PUBLIC "-//W3C//DTD SVG 20010904//EN"
 "http://www.w3.org/TR/2001/REC-SVG-20010904/DTD/svg10.dtd">
<svg version="1.0" xmlns="http://www.w3.org/2000/svg"
 width="1024.000000pt" height="1024.000000pt" viewBox="0 0 1024.000000 1024.000000"
 preserveAspectRatio="xMidYMid meet">

<g transform="translate(0.000000,1024.000000) scale(0.100000,-0.100000)"
fill="#000000" stroke="none">
<path d="M5590 8446 c-124 -19 -418 -66 -655 -106 -611 -101 -1013 -166 -1137
-185 -123 -18 -151 -28 -174 -63 -35 -53 -35 -90 -3 -202 23 -82 30 -129 32
-210 l2 -104 -40 -9 c-202 -45 -534 -169 -741 -276 -453 -235 -671 -481 -743
-837 -68 -337 -128 -1334 -118 -1964 8 -490 33 -660 126 -872 90 -204 264
-405 466 -537 96 -63 144 -98 109 -78 -6 3 -45 -3 -87 -14 -89 -25 -157 -75
-157 -116 0 -62 129 -131 323 -174 51 -11 117 -26 147 -34 67 -18 194 -39 360
-60 69 -9 159 -23 201 -31 42 -8 117 -14 166 -14 50 0 148 -9 219 -19 92 -14
215 -21 429 -26 165 -3 332 -8 370 -10 124 -7 1027 -9 1135 -2 58 4 184 9 280
12 96 4 222 10 280 15 58 5 164 12 235 15 163 8 352 30 419 49 28 8 80 20 116
26 36 6 83 16 105 20 22 5 81 16 130 25 111 19 295 78 349 112 89 55 104 87
66 135 -27 35 -162 100 -210 102 l-40 1 27 20 c169 122 286 254 363 407 77
153 118 313 136 535 l7 81 45 12 c114 28 200 97 253 202 28 56 33 81 55 272
41 368 55 712 33 818 -15 69 -51 139 -93 181 -37 37 -111 77 -142 77 -18 0
-19 8 -16 255 4 287 -4 355 -60 466 -66 132 -220 246 -367 271 -39 7 -71 16
-71 20 0 5 20 57 44 116 179 440 191 475 191 539 0 117 -56 159 -270 203 -278
56 -466 97 -471 103 -3 3 1 41 10 84 29 147 30 173 4 223 -16 31 -39 54 -72
75 l-49 30 -488 3 -487 3 -4 132 c-5 180 -33 244 -136 304 -65 39 -139 38
-402 -1z m347 -106 c68 -41 68 -43 68 -360 0 -166 -5 -335 -13 -405 -22 -203
-107 -747 -137 -883 -4 -14 -10 -20 -17 -16 -6 4 -34 6 -61 5 -42 -2 -49 0
-43 14 18 49 81 481 111 767 24 233 20 269 -27 273 -17 1 -25 9 -29 31 -5 27
-6 25 -12 -16 -3 -25 -11 -103 -17 -175 -16 -191 -67 -589 -96 -755 -14 -80
-31 -175 -38 -212 -7 -37 -14 -69 -17 -71 -2 -3 -115 -7 -250 -9 l-247 -5 32
50 c27 44 31 61 34 132 3 67 0 89 -16 121 -32 62 -87 105 -174 139 -55 20 -53
13 -35 154 7 52 17 96 23 98 13 4 60 -63 69 -99 10 -41 97 -64 146 -38 16 9
19 22 19 78 0 99 -33 162 -103 196 -28 14 -59 26 -69 26 -11 0 -18 7 -18 19 0
113 -130 133 -159 24 -6 -23 -15 -29 -49 -35 -50 -8 -72 -19 -139 -69 -99 -74
-142 -220 -94 -324 21 -46 82 -105 141 -135 22 -11 40 -22 40 -25 0 -2 -6 -32
-14 -67 -8 -35 -17 -80 -20 -101 l-7 -37 -30 16 c-20 10 -38 32 -51 62 -25 58
-31 62 -89 62 -62 0 -91 -30 -97 -102 -3 -47 0 -58 28 -97 l32 -44 -103 6
c-57 4 -176 9 -264 12 -88 3 -178 8 -201 11 l-40 5 42 219 c46 240 75 490 72
615 -1 66 -2 70 -5 25 l-4 -56 -51 2 c-29 2 -54 8 -59 16 -5 8 -9 -10 -9 -47
-1 -107 -43 -469 -69 -585 -7 -35 -8 -35 -57 -32 -48 2 -50 1 -65 -35 -9 -21
-19 -55 -23 -77 -4 -21 -9 -36 -12 -33 -3 2 0 24 5 49 24 105 82 507 97 668
22 246 15 489 -20 624 -14 55 -23 103 -21 107 3 4 29 10 58 14 107 13 388 57
582 91 703 122 1402 231 1490 233 33 1 61 -6 82 -19z m1154 -463 c40 -30 41
-50 14 -205 -51 -291 -207 -1097 -213 -1103 -4 -4 -162 -12 -352 -18 -190 -6
-398 -14 -463 -17 l-119 -5 6 28 c11 52 96 602 116 751 26 191 50 438 50 519
l0 63 473 0 c355 -1 476 -4 488 -13z m239 -427 c340 -70 484 -107 502 -130 10
-12 18 -28 18 -35 0 -13 -119 -322 -213 -555 l-55 -135 -194 -7 c-106 -3 -233
-9 -281 -11 -79 -5 -87 -4 -83 11 3 9 30 154 61 322 31 168 67 362 80 433 14
70 25 129 25 132 0 3 10 3 23 0 12 -3 65 -14 117 -25z m-2491 -306 c-6 -32
-13 -70 -16 -83 l-4 -24 -25 23 c-26 25 -32 67 -14 100 9 17 61 52 67 46 2 -1
-2 -29 -8 -62z m-2278 -296 c-5 -77 12 -120 72 -178 154 -151 437 -211 1197
-255 858 -49 1984 -39 3285 30 404 21 586 20 667 -5 157 -48 244 -157 269
-336 10 -75 7 -304 -7 -431 -6 -50 -8 -53 -35 -53 l-28 0 6 88 c5 84 -6 247
-15 209 -4 -20 -43 -60 -62 -65 -7 -2 -24 -12 -38 -23 -14 -10 -29 -19 -34
-19 -13 0 -39 -28 -42 -44 -1 -7 -25 -37 -54 -66 -29 -29 -52 -61 -52 -71 0
-14 -8 -19 -27 -20 -25 -2 -24 -2 7 -9 35 -7 35 -7 5 -9 -16 0 -88 -5 -160
-11 -71 -5 -209 -14 -305 -19 -271 -16 -370 -51 -495 -175 -151 -151 -205
-337 -205 -712 0 -144 3 -183 20 -236 22 -70 24 -79 11 -60 -6 10 -17 11 -54
1 -26 -6 -53 -9 -62 -5 -23 9 -19 -9 28 -108 55 -114 121 -202 198 -262 32
-26 59 -49 59 -51 0 -2 -4 -2 -9 2 -5 3 -12 1 -16 -4 -3 -6 -25 -20 -49 -32
-24 -12 -55 -32 -70 -45 -14 -13 -36 -25 -50 -26 -13 -1 -23 -5 -21 -8 2 -3 0
-12 -6 -20 -7 -13 -9 -13 -9 -1 0 10 -5 9 -17 -5 -10 -10 -29 -21 -43 -22 -14
-2 -29 -8 -35 -13 -5 -5 -18 -9 -29 -9 -10 0 -16 -3 -13 -6 11 -11 -76 -68
-106 -70 -16 -2 -36 -8 -45 -16 -11 -9 -14 -10 -8 0 4 6 3 12 -3 12 -5 0 -13
-4 -16 -10 -3 -5 -14 -10 -24 -10 -17 0 -66 -19 -156 -60 -22 -11 -59 -25 -82
-32 -24 -7 -43 -16 -43 -20 0 -5 -11 -8 -25 -8 -14 0 -25 -5 -25 -10 0 -7 -6
-7 -20 0 -11 6 -20 7 -20 3 0 -9 -71 -16 -167 -17 -33 -1 -59 -4 -57 -7 6 -10
-72 -19 -206 -25 -63 -2 -130 -9 -148 -14 -19 -5 -30 -5 -27 1 4 5 -1 9 -10 9
-10 0 -13 -5 -9 -12 6 -9 3 -9 -9 1 -12 9 -30 11 -59 6 -24 -3 -62 -8 -86 -9
-23 -2 -46 -7 -50 -11 -4 -5 -2 -5 5 -1 6 3 14 2 18 -4 4 -7 -47 -10 -149 -10
-97 0 -156 4 -156 10 0 6 -5 10 -11 10 -5 0 -7 -4 -4 -10 3 -5 2 -10 -4 -10
-5 0 -11 5 -13 12 -5 15 -101 14 -106 -1 -2 -6 -8 -11 -13 -11 -6 0 -7 5 -4
10 7 12 0 13 -89 10 -55 -1 -67 1 -61 12 6 10 5 11 -6 1 -15 -15 -33 -17 -24
-4 10 17 -29 18 -48 2 -10 -8 -17 -11 -15 -6 3 10 -4 15 -23 15 -5 0 -8 -4 -4
-9 6 -11 -70 -12 -100 -1 -11 4 -33 2 -50 -4 -42 -16 -105 -7 -105 15 0 5 -3
8 -7 7 -5 -1 -25 6 -47 15 -48 21 -212 25 -200 5 6 -10 5 -10 -7 -1 -9 7 -31
15 -50 17 -19 3 -34 5 -34 6 0 3 -56 12 -80 13 -11 0 -24 6 -28 11 -6 8 -10 7
-14 -1 -5 -15 -33 -18 -33 -4 0 5 -10 9 -22 9 -36 0 -94 11 -125 24 -15 6 -33
12 -40 14 -31 6 -91 29 -121 46 -19 10 -47 20 -63 22 -16 2 -38 11 -48 20 -9
9 -31 16 -47 16 -16 0 -37 7 -47 14 -9 7 -28 12 -42 11 -14 -2 -25 1 -25 6 0
5 -11 9 -23 9 -13 0 -27 3 -31 7 -4 4 -27 9 -52 10 -28 2 -53 11 -66 23 -21
19 -33 24 -51 21 -5 -1 -6 3 -2 9 3 5 -2 10 -12 10 -10 0 -25 9 -33 20 -8 11
-20 20 -27 20 -7 0 -31 17 -53 39 -39 37 -80 58 -80 40 0 -19 -30 5 -31 25 0
11 -3 15 -6 8 -8 -20 43 -174 73 -218 24 -37 22 -36 -31 16 l-56 55 30 -65
c38 -80 48 -125 31 -145 -7 -8 -15 -13 -19 -10 -10 5 -55 -27 -58 -42 -2 -7
21 -38 51 -70 47 -51 96 -133 79 -133 -3 0 2 -9 12 -20 10 -11 16 -23 13 -26
-9 -9 -126 126 -183 211 -92 138 -142 268 -171 450 -43 264 -23 1363 36 2070
37 430 97 607 268 788 30 31 55 57 56 57 1 0 -1 -23 -3 -52z m2366 -100 c35
-33 31 -80 -9 -112 -18 -14 -34 -23 -36 -21 -7 6 9 155 16 155 3 0 16 -10 29
-22z m-1189 -175 c-10 -2 -28 -2 -40 0 -13 2 -5 4 17 4 22 1 32 -1 23 -4z
m4210 -960 c-10 -2 -26 -2 -35 0 -10 3 -2 5 17 5 19 0 27 -2 18 -5z m-125 -10
c-13 -2 -35 -2 -50 0 -16 2 -5 4 22 4 28 0 40 -2 28 -4z m437 -125 c19 -13 45
-45 59 -73 23 -44 26 -63 29 -180 7 -240 -39 -790 -73 -880 -8 -23 -36 -62
-63 -88 -80 -79 -155 -96 -531 -117 -282 -15 -567 -13 -658 6 -189 39 -318
154 -368 329 -15 51 -17 89 -12 275 4 137 11 240 21 284 38 169 137 296 276
353 94 39 167 49 460 64 129 6 325 19 435 29 110 9 243 18 296 19 84 1 100 -2
129 -21z m-5660 -2183 c13 -14 21 -25 18 -25 -2 0 -15 11 -28 25 -13 14 -21
25 -18 25 2 0 15 -11 28 -25z"/>
<path d="M7203 7154 c-3 -8 -1 -25 4 -37 8 -18 10 -16 9 16 -1 41 -4 45 -13
21z"/>
<path d="M3762 5774 c-133 -35 -243 -141 -287 -274 -84 -252 118 -529 385
-530 128 0 219 39 304 129 55 60 92 135 108 220 27 143 -48 320 -169 400 -97
65 -228 86 -341 55z m292 -143 c57 -38 73 -109 36 -168 -27 -45 -56 -58 -128
-54 -35 2 -92 60 -98 102 -8 46 19 104 55 124 37 20 101 18 135 -4z"/>
<path d="M5691 5779 c-128 -25 -248 -118 -304 -237 -42 -88 -50 -216 -19 -304
59 -168 202 -271 382 -272 227 -2 398 152 417 375 18 208 -129 400 -336 439
-61 11 -78 11 -140 -1z m195 -154 c57 -43 58 -128 3 -181 -26 -25 -38 -29 -84
-29 -48 0 -59 4 -86 32 -43 43 -52 114 -18 157 47 60 122 69 185 21z"/>
<path d="M4376 4799 c-78 -61 31 -247 193 -328 99 -50 225 -68 346 -52 164 23
324 130 381 256 30 64 25 96 -19 129 l-28 20 -107 -28 c-200 -52 -419 -52
-612 -1 -116 30 -121 30 -154 4z"/>
<path d="M4388 3483 c6 -2 18 -2 25 0 6 3 1 5 -13 5 -14 0 -19 -2 -12 -5z"/>
<path d="M8150 5389 c-30 -11 -84 -26 -120 -33 -36 -8 -54 -15 -40 -16 22 -1
23 -2 5 -9 -18 -7 -17 -8 7 -14 40 -10 86 -54 112 -106 31 -61 64 -215 37
-172 -7 11 -10 9 -16 -8 -3 -11 -10 -21 -14 -21 -4 0 -16 -18 -26 -40 -10 -22
-22 -40 -27 -40 -5 0 -6 -4 -3 -10 3 -5 3 -10 -2 -10 -9 -1 -60 -79 -56 -86 3
-4 -31 -47 -58 -73 -60 -58 -109 -101 -116 -101 -4 0 -24 -14 -43 -31 -34 -30
-98 -65 -112 -61 -5 1 -8 -3 -8 -9 0 -5 -4 -8 -9 -5 -5 4 -11 2 -13 -3 -1 -5
-23 -12 -46 -15 -37 -4 -71 -21 -92 -47 -3 -4 -16 -10 -30 -14 -21 -6 -18 0
21 41 26 27 53 63 62 79 20 42 30 102 17 110 -5 3 -10 16 -11 28 -1 20 -1 20
-8 -3 -5 -14 -19 -45 -32 -70 -12 -25 -22 -48 -21 -51 2 -8 -39 -45 -44 -41
-3 2 -25 -6 -49 -18 -68 -33 -166 -32 -236 2 -37 18 -47 21 -32 9 l23 -19 -23
-1 c-62 -1 -63 -3 -18 -43 44 -38 117 -67 175 -69 27 0 -26 -15 -120 -33 -12
-2 -35 -11 -52 -20 -17 -9 -42 -16 -57 -16 -26 0 -34 -14 -12 -24 15 -7 -46 3
-93 15 -39 10 -68 28 -131 79 -46 37 -47 28 -5 -38 34 -53 104 -109 168 -134
29 -11 96 -26 148 -34 52 -8 127 -19 165 -25 81 -13 604 -5 728 10 111 14 146
34 179 101 21 42 29 76 34 144 4 63 9 85 16 75 7 -11 8 -9 3 5 -3 11 0 149 6
306 13 305 6 436 -27 520 -22 55 -38 61 -104 39z"/>
<path d="M7090 4596 c0 -2 8 -10 18 -17 15 -13 16 -12 3 4 -13 16 -21 21 -21
13z"/>
<path d="M7479 4583 c-13 -16 -12 -17 4 -4 16 13 21 21 13 21 -2 0 -10 -8 -17
-17z"/>
<path d="M8821 7614 c0 -11 3 -14 6 -6 3 7 2 16 -1 19 -3 4 -6 -2 -5 -13z"/>
<path d="M8831 7564 c0 -11 3 -14 6 -6 3 7 2 16 -1 19 -3 4 -6 -2 -5 -13z"/>
<path d="M8842 7505 c0 -16 2 -22 5 -12 2 9 2 23 0 30 -3 6 -5 -1 -5 -18z"/>
<path d="M8852 7425 c0 -16 2 -22 5 -12 2 9 2 23 0 30 -3 6 -5 -1 -5 -18z"/>
<path d="M8863 7335 c0 -22 2 -30 4 -17 2 12 2 30 0 40 -3 9 -5 -1 -4 -23z"/>
<path d="M8868 6843 l-2 -308 -6 230 c-3 151 -7 -22 -10 -500 -3 -401 -3 -953
0 -1225 5 -460 6 -475 10 -215 l5 280 5 -280 c3 -154 6 306 8 1023 1 716 0
1302 -3 1302 -3 0 -6 -138 -7 -307z m-1 -490 c-3 -10 -5 -4 -5 12 0 17 2 24 5
18 2 -7 2 -21 0 -30z"/>
<path d="M8513 2144 c-37 -50 -49 -61 -53 -48 -5 13 -9 14 -14 6 -10 -17 -29
-3 -21 16 3 9 -40 -29 -97 -84 -158 -153 -297 -244 -495 -323 -193 -77 -388
-120 -630 -141 -90 -8 -744 -10 -2178 -8 -1868 4 -2060 6 -2160 21 -375 58
-657 181 -900 391 -38 33 -67 56 -63 52 4 -5 -2 -18 -15 -28 l-22 -20 -54 59
c-52 56 -52 57 -12 6 105 -131 304 -289 469 -372 174 -88 365 -144 602 -178
117 -17 266 -18 2245 -18 2319 0 2182 -3 2450 56 377 83 716 293 928 574 33
44 65 86 70 93 5 6 7 12 3 12 -3 0 -27 -29 -53 -66z"/>
</g>
</svg>
